<?xml version="1.0" standalone="no"?>
<!DOCTYPE svg PUBLIC "-//W3C//DTD SVG 20010904//EN"
 "http://www.w3.org/TR/2001/REC-SVG-20010904/DTD/svg10.dtd">
<svg version="1.0" xmlns="http://www.w3.org/2000/svg"
 width="952.000000pt" height="952.000000pt" viewBox="0 0 952.000000 952.000000"
 preserveAspectRatio="xMidYMid meet">
<metadata>
Created by potrace 1.11, written by Peter Selinger 2001-2013
</metadata>
<g transform="translate(0.000000,952.000000) scale(0.100000,-0.100000)"
fill="#000000" stroke="none">
<path d="M6393 8985 c9 -22 -2 -42 -13 -24 -7 10 -12 10 -23 0 -10 -8 -17 -9
-22 -1 -9 15 -25 12 -25 -5 0 -12 -4 -14 -16 -7 -18 10 -54 5 -54 -8 0 -5 6
-11 13 -14 6 -3 -2 -5 -18 -4 -17 1 -36 -1 -43 -5 -6 -5 -12 -4 -12 2 0 6 -9
11 -20 11 -11 0 -20 -5 -20 -11 0 -6 -6 -9 -14 -6 -7 3 -17 2 -22 -2 -13 -12
-171 -53 -192 -50 -9 1 -25 -1 -34 -4 -39 -15 -49 -16 -43 -7 3 6 1 10 -4 10
-6 0 -11 -4 -11 -10 0 -5 -21 -10 -46 -10 -33 0 -43 -3 -38 -12 5 -9 2 -8 -9
1 -14 11 -23 11 -42 3 -18 -8 -25 -8 -28 1 -3 9 -7 9 -19 -1 -9 -7 -22 -10
-31 -6 -10 3 -20 -2 -26 -15 -6 -11 -17 -18 -25 -15 -8 3 -20 -4 -28 -14 -9
-14 -25 -20 -51 -20 -21 0 -43 -4 -50 -10 -18 -14 -67 -24 -67 -14 0 5 -21 -1
-47 -14 -27 -13 -56 -24 -65 -24 -9 0 -19 -4 -22 -9 -3 -5 -28 -14 -56 -21
-27 -7 -50 -17 -50 -23 0 -8 -3 -8 -11 0 -8 8 -21 8 -49 -2 -21 -8 -48 -11
-61 -8 -16 4 -20 3 -15 -6 6 -8 1 -10 -17 -6 -15 4 -28 2 -32 -5 -6 -9 -10 -9
-16 1 -6 11 -11 11 -20 2 -9 -9 -17 -9 -32 -1 -16 8 -23 7 -31 -3 -6 -8 -20
-21 -30 -29 -18 -13 -19 -13 -14 1 5 12 0 15 -21 14 -15 -1 -32 -5 -39 -9 -6
-3 -27 -7 -47 -8 -19 -1 -35 -5 -35 -10 0 -4 -8 -8 -18 -8 -10 0 -23 -5 -30
-12 -7 -7 -29 -13 -50 -15 -49 -3 -82 -21 -75 -42 4 -14 3 -14 -7 -1 -9 11
-13 12 -17 3 -2 -7 -11 -13 -19 -13 -8 0 -14 -5 -14 -11 0 -8 -5 -8 -15 1 -11
9 -18 10 -28 1 -8 -6 -16 -8 -19 -5 -3 3 -40 -13 -82 -35 -42 -23 -84 -41 -94
-42 -9 0 -32 -19 -51 -42 -19 -23 -31 -33 -27 -23 7 19 6 19 -13 2 -11 -10
-18 -23 -15 -27 3 -5 -4 -9 -15 -9 -12 0 -21 -4 -21 -8 0 -5 -18 -16 -40 -26
-22 -9 -39 -22 -37 -29 1 -6 -8 -13 -21 -15 -15 -2 -22 -9 -18 -17 3 -8 -10
-25 -29 -40 -23 -19 -34 -37 -37 -62 -5 -44 3 -49 30 -18 13 14 33 25 47 25
14 0 25 5 25 11 0 6 7 9 15 5 8 -3 14 0 12 7 -1 8 13 12 46 11 42 -2 46 0 30
12 -21 16 -10 18 18 4 14 -8 19 -7 19 1 0 9 4 8 14 0 12 -10 17 -8 26 9 6 11
15 18 20 15 5 -3 26 4 47 16 23 13 39 17 41 10 4 -11 13 -5 58 37 29 26 34 27
34 8 0 -29 60 -26 61 3 0 10 4 7 11 -9 6 -14 10 -28 10 -32 -3 -13 15 -9 28 7
15 18 34 20 24 3 -5 -8 -2 -9 10 -5 10 4 22 7 27 7 5 0 9 6 9 13 0 15 82 39
104 31 9 -3 16 2 18 12 3 17 5 16 25 -5 23 -25 43 -21 43 9 0 13 5 18 15 13 9
-3 22 2 30 13 14 18 16 18 25 2 8 -13 21 -17 45 -15 34 2 39 7 36 35 -1 6 5
12 14 12 8 0 15 -6 15 -13 0 -18 39 -15 51 4 8 12 10 12 19 -1 9 -13 11 -13
20 0 7 10 12 12 18 4 9 -14 85 -27 77 -13 -12 19 7 30 22 12 8 -10 12 -12 8
-5 -3 6 -1 12 4 12 6 0 11 -4 11 -9 0 -15 32 -22 46 -10 7 6 18 8 24 4 5 -3
10 -1 10 4 0 6 9 11 20 11 11 0 20 5 20 11 0 7 10 9 28 5 57 -13 78 -17 120
-19 23 -2 42 1 42 6 0 5 9 7 20 4 10 -3 21 0 24 7 3 7 8 6 15 -4 10 -13 13
-13 22 4 9 14 13 15 19 5 7 -10 12 -10 23 0 10 8 17 8 21 2 4 -6 13 -8 21 -5
8 4 12 10 9 15 -3 5 2 9 10 9 9 0 16 -4 16 -10 0 -5 15 -10 33 -10 17 0 46 -4
64 -9 18 -5 33 -6 35 -1 2 5 15 6 30 3 20 -4 25 -9 20 -22 -5 -14 -4 -14 11
-2 15 12 17 11 17 -3 0 -9 12 -18 28 -22 15 -4 33 -11 40 -17 6 -5 13 -7 13
-3 1 3 3 11 4 16 1 6 3 13 4 17 0 3 9 -1 19 -10 22 -20 86 -27 87 -10 0 6 4
15 9 20 5 5 6 3 2 -4 -5 -9 1 -13 21 -13 30 -1 63 -20 63 -38 0 -5 16 -10 36
-10 44 0 52 -7 35 -34 -12 -19 -11 -20 13 -16 15 3 27 0 30 -8 3 -8 16 -14 30
-14 16 0 25 -7 29 -21 4 -16 11 -20 26 -16 12 3 21 1 21 -5 0 -5 9 -6 20 -3
16 5 20 2 20 -19 0 -22 5 -26 33 -27 17 -1 41 0 51 1 14 1 17 -3 12 -15 -6
-17 9 -45 24 -45 4 0 10 9 13 20 6 25 27 26 28 3 0 -16 1 -16 8 1 7 18 8 18
14 2 4 -9 11 -14 17 -11 6 4 10 -5 10 -19 0 -14 4 -26 9 -26 5 0 16 -19 23
-42 11 -31 20 -42 36 -43 12 -1 22 2 22 7 0 17 32 7 37 -12 5 -19 6 -20 19 -3
8 10 13 14 12 8 -5 -21 25 -52 45 -47 18 5 19 2 14 -26 -4 -18 -2 -34 4 -38 6
-3 9 -17 6 -31 -3 -19 1 -27 20 -34 36 -13 40 -12 51 19 9 25 9 24 13 -20 2
-27 1 -48 -2 -48 -4 0 -9 -7 -13 -15 -8 -21 38 -59 72 -60 25 0 27 -3 30 -52
2 -34 -1 -53 -8 -53 -6 0 -8 -5 -4 -11 5 -8 9 -8 14 1 12 19 35 -1 35 -29 0
-34 17 -36 37 -4 16 27 16 27 14 -40 -2 -51 0 -67 11 -67 15 0 18 -26 3 -35
-23 -14 -7 -22 34 -18 43 5 44 4 51 -26 4 -18 14 -35 22 -38 10 -4 13 -13 8
-30 -3 -15 -2 -22 4 -18 6 3 24 -8 42 -24 17 -16 36 -28 43 -25 8 3 12 -8 13
-33 1 -22 8 -42 18 -49 9 -7 14 -18 10 -24 -4 -6 -1 -18 6 -27 11 -13 10 -18
-7 -32 -24 -19 -21 -53 4 -44 9 3 26 13 36 22 18 15 19 15 13 -10 -5 -18 -2
-31 8 -39 20 -17 19 -30 -2 -31 -14 0 -13 -3 5 -11 29 -15 30 -42 1 -33 -19 6
-21 4 -17 -20 5 -24 3 -26 -18 -22 -24 4 -35 -18 -13 -25 22 -7 -1 -48 -27
-48 -24 0 -29 -12 -25 -60 1 -22 -19 -48 -26 -32 -8 20 -33 14 -33 -8 0 -11
-4 -20 -9 -20 -5 0 -16 -13 -25 -30 -17 -35 -17 -35 20 -15 16 8 39 15 52 15
14 0 22 6 22 17 0 12 3 14 10 7 13 -13 2 -44 -16 -45 -8 -1 -18 -3 -24 -4 -5
-1 -14 -3 -20 -4 -17 -2 -11 -21 8 -21 14 0 15 -2 2 -10 -12 -7 -10 -11 10
-19 14 -5 19 -10 13 -10 -7 -1 -13 -13 -13 -27 0 -14 -4 -23 -9 -19 -5 3 -12
1 -16 -5 -3 -5 -17 -10 -30 -10 -22 0 -24 -3 -18 -32 7 -41 12 -46 22 -29 12
18 18 5 26 -58 5 -36 10 -49 16 -40 6 10 9 11 9 2 0 -20 27 -15 50 9 18 20 20
20 20 4 0 -10 -8 -26 -17 -35 -17 -15 -26 -91 -11 -91 4 0 10 -10 14 -22 4
-13 10 -25 15 -28 4 -3 5 -24 2 -48 -5 -37 -7 -40 -19 -25 -11 15 -16 16 -33
6 -11 -7 -28 -10 -38 -7 -17 5 -17 5 1 -10 10 -8 15 -19 12 -24 -3 -6 -2 -21
3 -34 6 -16 4 -27 -6 -37 -18 -16 -30 -6 -14 13 9 10 8 15 -3 19 -7 3 -18 1
-24 -5 -6 -6 -12 -6 -16 1 -4 6 -2 11 4 11 17 0 6 25 -11 26 -30 1 -39 -16
-24 -47 18 -34 19 -69 3 -69 -8 0 -5 -7 6 -15 11 -8 14 -15 8 -15 -7 0 -12
-11 -12 -25 0 -14 -5 -25 -12 -25 -6 0 -8 -3 -5 -6 4 -4 13 -2 20 4 20 17 27
5 27 -44 0 -57 8 -74 34 -74 16 0 21 -6 21 -24 0 -13 -3 -22 -7 -19 -11 6 -10
0 7 -41 8 -20 21 -36 29 -36 20 0 25 -21 16 -71 -5 -24 -5 -45 0 -47 12 -4
-10 -65 -29 -79 -15 -10 -15 -14 0 -40 10 -17 15 -40 12 -60 -3 -20 -1 -33 5
-33 12 0 5 -69 -8 -84 -5 -4 -4 -21 2 -37 5 -16 7 -36 4 -45 -3 -8 -1 -24 4
-35 6 -11 7 -19 2 -19 -6 0 -13 8 -16 18 -4 9 -15 32 -26 50 -16 30 -19 31
-24 14 -10 -31 -33 -47 -49 -33 -8 6 -16 8 -19 5 -3 -3 -11 9 -17 27 -15 44
-20 34 -11 -21 4 -25 8 -39 9 -33 0 7 11 11 24 9 15 -2 23 -11 25 -29 2 -15
-1 -27 -6 -27 -6 0 -8 -9 -5 -20 4 -15 11 -19 32 -14 24 5 24 4 9 -9 -24 -19
-22 -35 5 -39 18 -2 21 -8 18 -33 -1 -16 -11 -35 -21 -42 -11 -8 -17 -22 -15
-33 2 -11 0 -22 -6 -25 -5 -4 -9 -22 -9 -41 l0 -34 20 20 c11 11 20 25 20 30
0 6 5 10 10 10 15 0 12 -33 -6 -58 -10 -14 -11 -22 -3 -22 6 0 9 -6 6 -14 -3
-7 -1 -18 3 -22 5 -5 7 -19 4 -31 -5 -18 -12 -21 -43 -18 -20 1 -37 3 -38 4
-1 1 2 12 7 26 7 19 6 23 -5 18 -8 -3 -15 -14 -15 -25 0 -17 -2 -18 -15 -4 -8
8 -15 22 -15 30 0 9 -7 16 -15 16 -8 0 -15 -7 -15 -15 0 -8 -6 -34 -12 -56
-12 -37 -16 -40 -40 -35 -21 4 -26 2 -21 -9 3 -9 0 -22 -7 -30 -7 -9 -10 -18
-6 -22 3 -3 -4 -11 -17 -17 -17 -9 -23 -22 -25 -54 -3 -43 -17 -56 -25 -24 -4
15 -5 15 -6 -2 -1 -15 -4 -16 -16 -6 -12 10 -15 10 -15 -3 0 -8 -6 -18 -12
-21 -10 -5 -10 -7 0 -12 16 -8 15 -24 -2 -24 -7 0 -16 -11 -18 -24 -4 -22 -3
-23 19 -15 21 8 23 6 22 -24 0 -17 -3 -26 -6 -19 -10 25 -33 12 -33 -18 0 -20
-5 -30 -15 -30 -8 0 -15 -7 -15 -15 0 -8 -5 -15 -11 -15 -33 0 -79 -90 -46
-90 6 0 0 -8 -15 -18 -16 -9 -28 -22 -28 -28 0 -7 -7 -14 -15 -18 -8 -3 -15
-12 -15 -21 0 -12 7 -14 32 -10 32 6 32 6 14 -14 -10 -11 -23 -18 -28 -15 -5
3 -8 -2 -6 -12 2 -11 -6 -23 -19 -29 -31 -16 -59 -54 -67 -92 -5 -23 -13 -33
-26 -33 -12 0 -22 -12 -31 -38 -7 -20 -14 -31 -16 -24 -3 6 -13 12 -24 12 -11
0 -19 7 -19 16 0 11 6 15 20 11 13 -3 20 0 20 9 0 16 -28 18 -49 5 -7 -5 -11
-15 -9 -22 2 -7 -1 -25 -8 -38 -10 -19 -10 -28 -2 -39 13 -16 3 -24 -49 -44
-18 -7 -33 -16 -33 -20 0 -4 -9 -8 -20 -8 -16 0 -20 7 -20 30 0 17 -4 30 -10
30 -5 0 -9 6 -7 13 1 7 -6 11 -16 9 -9 -2 -20 4 -23 13 -5 13 -12 10 -35 -16
-22 -25 -30 -29 -34 -17 -3 8 -1 26 4 41 7 17 7 28 0 32 -5 4 -6 11 -3 17 5 7
1 9 -9 5 -22 -8 -22 2 0 18 9 7 13 17 9 24 -15 23 -46 -18 -46 -61 0 -25 -4
-37 -12 -35 -8 1 -14 -11 -16 -30 -3 -30 -5 -31 -28 -22 -36 13 -44 4 -44 -52
0 -42 -3 -49 -20 -49 -21 0 -27 19 -11 35 11 13 2 85 -11 85 -5 0 -8 -6 -7
-12 2 -21 -13 -58 -23 -58 -5 0 -12 9 -15 20 -3 11 -12 20 -20 20 -10 0 -12 7
-9 20 3 11 8 28 11 39 3 10 -1 24 -10 31 -12 10 -15 9 -15 -6 0 -35 -21 -95
-31 -88 -17 10 -70 -17 -67 -35 3 -24 -30 -81 -47 -81 -8 0 -15 7 -15 16 0 20
-28 43 -51 44 -18 0 -29 -19 -29 -50 0 -10 -6 -25 -12 -32 -15 -15 -20 -48 -7
-48 5 0 9 -4 9 -10 0 -19 -29 2 -39 28 -8 24 -10 24 -10 6 -1 -31 -29 -39 -37
-11 -3 13 -4 30 -2 38 2 8 -4 14 -12 14 -27 0 -36 -69 -19 -136 9 -32 12 -59
7 -59 -4 0 -8 -4 -8 -10 0 -5 6 -10 14 -10 13 0 13 -4 0 -27 -7 -16 -14 -34
-14 -40 0 -7 -4 -13 -10 -13 -5 0 -10 -9 -10 -19 0 -14 -5 -18 -20 -14 -11 3
-20 0 -20 -6 0 -6 -14 -11 -32 -9 -45 2 -51 7 -34 24 9 8 12 22 9 31 -8 21
-43 56 -43 43 0 -5 -7 -7 -15 -4 -8 4 -15 1 -15 -5 0 -6 -7 -8 -15 -5 -10 4
-15 0 -15 -14 0 -11 6 -22 13 -25 6 -2 9 -8 5 -12 -4 -4 -14 -2 -23 5 -10 8
-15 9 -15 1 0 -6 5 -11 10 -11 6 0 10 -6 10 -13 0 -8 -7 -14 -15 -14 -8 0 -12
4 -9 9 3 4 -2 8 -10 8 -9 0 -16 -9 -16 -20 0 -16 5 -19 25 -16 30 6 32 -4 5
-27 -11 -9 -20 -25 -20 -36 0 -27 -31 -36 -47 -15 -7 10 -13 26 -13 36 0 10
-10 20 -23 24 -18 4 -23 11 -20 28 6 29 -24 57 -38 35 -12 -18 -12 -49 0 -49
17 0 24 -42 10 -52 -11 -7 -11 -11 -1 -15 19 -8 15 -53 -5 -54 -12 0 -13 -2
-5 -6 9 -3 7 -10 -9 -23 -16 -15 -19 -25 -14 -49 4 -21 3 -31 -5 -31 -7 0 -10
-7 -6 -15 3 -8 1 -15 -4 -15 -6 0 -10 -9 -10 -20 0 -11 -4 -20 -10 -20 -5 0
-10 4 -10 9 0 5 -6 11 -12 14 -9 3 -14 -7 -15 -30 -2 -37 -20 -66 -34 -57 -5
3 -9 -2 -9 -10 0 -9 -7 -16 -15 -16 -8 0 -15 -9 -15 -20 0 -11 6 -20 13 -20
19 0 36 20 30 36 -3 8 1 14 11 14 9 0 16 -6 15 -12 -1 -21 -14 -50 -22 -48 -4
0 -15 -3 -24 -8 -14 -9 -14 -13 0 -56 14 -41 14 -48 2 -53 -8 -3 -22 -3 -30 1
-17 6 -21 36 -5 36 7 0 7 6 1 19 -9 15 -20 18 -61 16 -36 -1 -50 2 -50 12 0 7
-4 13 -10 13 -5 0 -10 -7 -10 -15 0 -10 -10 -15 -30 -15 -17 0 -33 -6 -36 -14
-5 -12 -9 -12 -32 0 -16 8 -28 10 -30 4 -5 -14 -62 -13 -62 1 0 6 7 9 15 5 8
-3 15 -1 15 4 0 6 -6 10 -14 10 -17 0 -25 72 -15 145 4 31 2 53 -4 57 -18 11
-25 0 -24 -37 1 -19 -5 -41 -12 -48 -10 -10 -11 -9 -9 3 2 8 0 5 -6 -7 -12
-28 -30 -30 -23 -3 3 11 1 18 -4 14 -11 -6 -11 -6 0 34 6 20 6 30 0 27 -5 -4
-9 7 -9 24 0 16 -4 33 -10 36 -5 3 -10 -1 -10 -9 0 -8 -4 -18 -10 -21 -9 -6
-5 111 6 148 6 18 -11 24 -21 7 -5 -8 -11 -7 -21 1 -12 10 -16 8 -21 -9 -3
-12 -8 -22 -12 -22 -17 1 -41 30 -41 49 0 12 -4 19 -10 16 -6 -3 -13 0 -16 8
-3 8 -14 17 -25 20 -14 4 -19 0 -19 -14 0 -10 -4 -19 -10 -19 -5 0 -10 -4 -10
-10 0 -5 8 -10 18 -10 19 0 19 -1 25 -106 3 -62 1 -73 -16 -84 -18 -11 -19
-10 -13 13 6 25 -15 92 -26 82 -3 -3 -5 8 -6 23 0 16 -8 47 -18 69 -17 40 -19
40 -41 26 -22 -15 -23 -14 -23 11 0 15 -6 26 -13 26 -18 0 -9 -70 9 -77 8 -3
14 -15 13 -27 0 -20 -1 -19 -12 4 -11 24 -11 24 -15 -12 -2 -21 -8 -38 -13
-38 -6 0 -8 -4 -5 -9 3 -4 -1 -17 -9 -27 -8 -10 -15 -27 -15 -36 0 -22 -30
-24 -30 -3 0 8 4 15 10 15 5 0 7 6 4 14 -3 7 1 38 8 67 15 63 12 119 -6 119
-8 0 -12 9 -11 23 1 12 3 22 5 22 1 0 3 12 4 28 1 15 -2 27 -6 27 -4 0 -8 -9
-8 -20 0 -11 -9 -29 -20 -40 -11 -11 -20 -24 -20 -30 0 -5 -5 -10 -11 -10 -7
0 -9 11 -5 30 4 23 2 32 -10 37 -19 7 -74 59 -74 69 0 4 -7 12 -16 18 -8 6
-16 26 -16 44 -1 20 -6 32 -15 32 -10 0 -12 -6 -8 -20 4 -11 2 -20 -4 -20 -6
0 -11 6 -11 13 -1 6 -8 -1 -16 -17 -12 -21 -19 -25 -27 -17 -8 8 -8 20 1 43
14 37 5 48 -40 48 -21 0 -28 -5 -28 -19 0 -10 -7 -25 -16 -32 -15 -12 -16 -11
-10 11 9 29 44 62 57 54 5 -3 9 11 9 30 0 32 -3 36 -25 36 -24 0 -24 0 -11 44
13 42 12 45 -7 50 -16 4 -18 8 -8 19 12 16 4 50 -10 41 -5 -3 -9 0 -9 6 0 6
-4 9 -9 6 -5 -4 -7 3 -4 14 3 11 0 27 -7 35 -7 9 -10 18 -6 22 3 4 -8 12 -24
20 l-31 13 23 25 c65 73 67 74 122 72 28 -2 80 2 116 9 36 7 68 10 73 7 4 -2
7 0 7 5 0 6 13 14 28 20 26 9 74 50 115 98 18 21 35 114 21 114 -4 0 -13 -8
-21 -17 -14 -17 -14 -17 -10 2 3 11 6 26 8 34 2 7 -2 16 -8 18 -7 3 -13 -2
-13 -10 0 -23 -30 -49 -48 -42 -8 3 -19 0 -23 -7 -5 -8 -34 -12 -88 -12 -72 1
-83 3 -106 26 -14 14 -44 30 -68 36 -54 14 -148 21 -141 11 2 -4 -8 -4 -23 0
-16 4 -34 6 -41 4 -7 -3 -19 0 -27 7 -8 7 -23 9 -37 4 -36 -11 -72 -11 -81 0
-5 8 -11 6 -20 -4 -6 -9 -19 -14 -28 -12 -8 1 -28 -4 -43 -12 -16 -8 -35 -12
-42 -9 -9 3 -14 -2 -14 -12 0 -14 -3 -15 -15 -5 -10 9 -15 9 -15 1 0 -6 -6
-11 -13 -11 -7 0 -18 -9 -25 -20 -9 -16 -21 -20 -49 -18 -22 1 -38 -3 -41 -10
-2 -7 -10 -12 -17 -12 -7 0 -16 -6 -18 -12 -4 -10 -8 -10 -15 0 -8 11 -10 11
-15 -1 -4 -12 -19 -14 -61 -12 -31 2 -56 2 -56 -1 0 -19 44 -74 59 -74 6 0 11
-4 11 -9 0 -5 12 -11 27 -13 15 -2 29 -10 31 -18 3 -20 -71 -132 -112 -168
-36 -31 -71 -82 -57 -82 11 0 -1 -56 -18 -88 -7 -12 -9 -27 -6 -32 7 -11 -24
-90 -36 -90 -4 0 -13 -9 -19 -21 -14 -24 3 -51 26 -42 10 4 12 0 8 -11 -3 -9
-10 -16 -15 -16 -5 0 -9 -15 -9 -33 0 -18 -4 -37 -8 -42 -10 -13 -28 -70 -37
-115 -4 -25 -3 -31 4 -20 5 8 12 12 15 9 9 -9 -16 -123 -30 -140 -8 -9 -11
-19 -7 -22 3 -4 1 -7 -5 -7 -7 0 -12 -9 -12 -20 0 -11 -3 -20 -7 -20 -9 0 -33
-49 -33 -67 0 -7 -4 -13 -10 -13 -5 0 -10 -15 -10 -34 0 -19 -6 -37 -12 -39
-7 -3 -3 -6 10 -6 12 -1 22 5 22 13 0 8 8 24 18 36 13 17 24 21 40 16 12 -4
22 -14 22 -22 0 -8 -4 -13 -9 -10 -5 4 -12 -8 -16 -25 -4 -17 -16 -40 -26 -50
-20 -20 -23 -63 -10 -109 l8 -25 13 28 c7 15 17 27 22 27 14 0 9 -34 -9 -60
-12 -17 -13 -25 -5 -28 7 -2 12 -13 12 -24 0 -16 -5 -19 -21 -15 -24 6 -56
-17 -39 -28 5 -3 10 -1 10 4 0 6 5 11 10 11 16 0 10 -89 -9 -130 -11 -25 -16
-30 -19 -17 -4 21 -22 23 -22 2 0 -8 -5 -15 -11 -15 -5 0 -7 -5 -4 -10 3 -6 1
-10 -4 -10 -6 0 -11 -7 -11 -16 0 -12 -6 -15 -21 -11 -15 4 -19 1 -16 -11 2
-9 7 -16 13 -15 5 1 8 -22 7 -50 -2 -38 0 -47 6 -32 8 17 10 15 10 -14 1 -30
3 -33 26 -29 27 6 30 1 16 -21 -5 -7 -15 -11 -22 -7 -8 4 -7 1 2 -5 15 -11 15
-16 2 -48 -16 -38 -25 -104 -14 -97 4 3 6 -14 6 -37 -1 -27 5 -52 18 -70 15
-22 18 -38 13 -68 -4 -25 -2 -39 5 -39 6 0 8 -8 4 -20 -5 -14 -2 -20 10 -20 8
0 20 -10 26 -22 l10 -23 -5 23 c-2 12 -1 22 3 22 11 0 45 -69 38 -77 -4 -3 -7
-1 -7 5 0 20 -17 13 -23 -8 -3 -11 -1 -18 3 -15 5 3 11 1 15 -5 3 -5 22 -10
41 -10 19 0 33 -4 30 -9 -3 -5 -14 -8 -24 -6 -9 1 -12 0 -5 -2 14 -5 23 -28
29 -70 3 -25 -1 -36 -21 -51 -14 -11 -24 -26 -23 -34 2 -7 -5 -12 -14 -12 -23
2 -22 -2 1 -25 19 -19 20 -19 26 -2 3 10 14 26 24 35 16 15 19 15 24 1 4 -8 3
-15 -1 -15 -4 0 -18 -16 -31 -35 -23 -35 -56 -49 -45 -20 10 26 -22 17 -36
-10 -7 -14 -17 -25 -22 -25 -4 0 -8 -6 -8 -14 0 -15 -30 -26 -72 -26 -38 0
-58 -10 -59 -29 0 -10 -2 -11 -6 -3 -2 6 -16 12 -31 12 -23 0 -24 -1 -8 -13
16 -11 15 -14 -13 -35 -26 -19 -31 -20 -31 -6 0 14 -2 15 -17 3 -9 -8 -25 -12
-36 -11 -15 3 -18 0 -14 -12 5 -12 0 -16 -18 -16 -14 0 -25 -6 -25 -13 0 -6
-14 -18 -30 -25 -29 -13 -47 -27 -108 -80 -22 -19 -24 -25 -12 -32 11 -7 8
-10 -12 -10 -21 0 -34 -9 -51 -38 -13 -20 -37 -44 -53 -52 -32 -17 -63 -49
-64 -66 0 -7 -10 -14 -21 -17 -14 -4 -20 -11 -16 -21 4 -10 1 -13 -7 -10 -8 3
-16 -4 -19 -15 -3 -13 -11 -19 -20 -15 -8 3 -17 -2 -20 -10 -4 -9 -2 -16 3
-16 6 0 10 -7 10 -16 0 -11 -5 -14 -17 -10 -16 7 -61 -31 -55 -46 1 -5 -3 -8
-9 -8 -5 0 -7 -4 -4 -10 6 -9 -7 -14 -21 -7 -3 1 -10 -6 -15 -16 -6 -9 -14
-15 -20 -12 -5 4 -9 2 -9 -4 0 -5 8 -15 18 -20 14 -9 13 -10 -11 -11 -22 0
-31 -7 -43 -35 -8 -20 -26 -45 -39 -57 -14 -12 -25 -28 -25 -35 0 -7 -5 -13
-11 -13 -5 0 -8 -4 -5 -9 3 -5 -1 -15 -10 -22 -15 -12 -36 -53 -38 -72 -1 -4
-6 -11 -12 -15 -12 -8 -28 -43 -25 -55 0 -4 -6 -10 -14 -13 -8 -4 -15 -15 -15
-25 0 -11 -7 -22 -15 -25 -8 -4 -18 -23 -21 -45 -4 -21 -15 -46 -25 -55 -11
-9 -19 -28 -19 -41 0 -12 -4 -23 -10 -23 -5 0 -10 -7 -10 -15 0 -13 265 -15
2340 -15 2068 0 2340 2 2340 15 0 8 6 15 13 16 6 0 3 4 -8 8 -19 8 -19 8 4 20
18 10 25 10 31 1 5 -8 9 -7 13 4 3 8 2 18 -3 21 -16 10 -12 38 4 32 10 -4 12
0 8 15 -4 17 -2 20 11 15 10 -4 17 -2 17 4 0 6 10 9 23 7 13 -2 28 1 35 8 15
17 -1 28 -28 19 -16 -5 -20 -2 -20 15 0 16 4 20 18 16 13 -5 27 3 44 25 16 18
29 26 33 20 13 -22 27 -11 20 17 -4 20 -1 33 9 42 10 7 14 21 10 35 -4 17 0
24 18 29 34 9 38 8 32 -9 -4 -8 -1 -15 4 -15 15 0 20 31 10 58 -7 20 -6 22 13
11 11 -6 23 -8 27 -5 3 3 0 6 -6 6 -7 0 -12 5 -12 11 0 17 -24 36 -40 32 -8
-3 0 6 18 18 29 19 33 26 28 51 -3 15 -1 28 4 28 6 0 10 11 10 25 0 14 6 25
13 25 7 0 28 13 46 29 26 24 29 30 16 35 -19 7 -15 30 6 32 8 0 19 2 26 2 13
2 14 142 1 142 -4 0 -7 11 -6 24 1 15 7 22 15 19 8 -3 13 3 14 13 0 11 3 14 6
6 2 -6 9 -9 14 -6 6 3 0 21 -11 40 -12 19 -17 34 -11 34 17 0 51 -42 51 -63 0
-11 5 -16 13 -13 6 3 20 9 29 12 19 7 53 72 50 95 -2 9 6 19 18 22 11 3 20 12
20 21 0 9 5 16 10 16 6 0 10 9 10 20 0 10 7 23 17 28 14 8 13 12 -11 27 -22
15 -26 24 -24 54 2 20 6 38 10 41 3 3 8 12 10 20 2 7 12 23 24 34 11 12 24 29
27 40 4 10 13 16 22 13 8 -4 12 -1 9 7 -3 7 7 18 21 26 15 8 21 16 15 20 -7 5
-6 11 3 19 8 6 13 21 10 31 -3 12 0 20 7 20 7 0 9 8 5 20 -5 15 -2 18 14 15
31 -6 23 26 -9 38 -12 4 -12 6 1 6 9 1 20 8 23 17 3 8 10 13 16 9 5 -3 9 7 9
22 0 68 3 93 12 93 5 0 9 11 9 25 0 14 5 25 10 25 6 0 10 7 10 15 0 9 7 18 15
21 8 4 15 12 15 20 0 8 6 14 14 14 8 0 16 6 19 13 3 8 9 6 19 -7 14 -18 15
-17 16 14 0 17 8 40 16 49 9 10 16 27 16 39 0 12 6 22 14 22 19 0 30 48 15 66
-9 11 -9 14 0 14 8 0 10 8 5 23 -9 29 -12 44 -7 35 9 -15 23 -8 23 12 0 11 5
20 10 20 6 0 10 9 10 19 0 11 5 23 11 27 6 3 9 19 6 34 -3 15 -1 32 6 39 8 8
6 11 -11 11 -12 0 -22 5 -22 10 0 6 5 10 10 10 6 0 10 5 10 11 0 5 -4 7 -10 4
-16 -10 -12 11 9 49 11 19 18 36 16 38 -11 10 19 83 41 102 23 19 51 98 34 93
-13 -3 -13 6 1 35 10 24 10 31 -6 48 -16 18 -17 25 -7 54 7 18 12 44 12 59 0
15 4 27 9 27 5 0 11 9 14 20 3 13 0 20 -9 20 -8 0 -14 -4 -14 -10 0 -5 -7 -7
-15 -4 -8 4 -15 14 -15 24 0 11 -5 22 -11 26 -6 3 -8 15 -6 26 4 14 2 18 -9
14 -11 -4 -14 -1 -10 12 15 50 17 72 8 72 -6 0 -13 18 -17 40 -4 22 -11 42
-16 46 -5 3 -9 29 -9 58 0 28 -6 58 -12 65 -11 11 -10 12 0 6 9 -4 19 1 28 14
16 22 44 29 44 11 0 -5 7 -10 15 -10 8 0 30 -16 49 -36 32 -33 42 -37 88 -38
49 -2 53 -4 61 -32 6 -22 19 -34 43 -43 19 -7 34 -19 34 -27 0 -8 4 -14 9 -14
6 0 13 -20 16 -45 4 -24 12 -43 18 -42 6 1 15 -19 20 -46 6 -30 14 -47 24 -47
8 0 12 -4 9 -8 -3 -5 8 -24 24 -43 16 -19 29 -40 30 -46 0 -7 5 -13 11 -13 5
0 7 -4 4 -10 -3 -5 -1 -10 5 -10 7 0 9 -8 5 -19 -4 -14 0 -23 15 -31 17 -9 18
-14 9 -31 -11 -22 -5 -54 9 -45 9 5 43 -29 41 -42 -4 -24 3 -52 12 -52 6 0 9
15 7 37 -2 22 2 38 10 41 20 6 14 22 -9 22 -18 0 -21 5 -17 30 2 16 0 31 -4
32 -5 2 -10 19 -10 38 0 19 -10 48 -21 64 -12 16 -16 26 -9 23 6 -4 15 0 19
10 13 27 9 58 -6 55 -13 -3 -11 20 5 62 3 9 1 16 -5 16 -6 0 -11 10 -11 21 0
18 -2 19 -15 9 -13 -11 -15 -10 -11 1 13 39 16 123 4 130 -9 6 -9 11 1 23 20
23 17 77 -5 93 -16 12 -17 15 -4 23 12 8 12 11 -3 28 -10 11 -13 22 -8 28 14
14 31 84 20 84 -5 0 -9 11 -9 25 0 14 5 25 10 25 6 0 10 14 10 31 0 23 -4 30
-14 26 -10 -4 -13 -1 -9 9 3 7 8 14 12 14 4 0 5 14 3 31 -3 18 0 34 8 39 9 6
9 12 -1 27 -9 16 -10 30 0 64 6 24 13 63 16 87 2 24 9 49 15 57 8 9 7 14 -5
18 -16 7 -11 35 10 52 15 13 26 83 14 90 -5 4 -12 -1 -15 -9 -3 -9 -13 -16
-22 -16 -8 0 -12 -3 -9 -6 12 -12 -14 -44 -34 -44 -15 0 -19 -5 -15 -16 4 -10
1 -14 -6 -12 -14 5 -38 -15 -38 -31 0 -6 -7 -11 -15 -11 -8 0 -23 -9 -32 -20
-16 -19 -18 -19 -25 -3 -6 17 -7 17 -7 0 -1 -10 -5 -15 -11 -12 -5 3 -10 2
-10 -4 0 -5 -10 -11 -22 -13 -13 -2 -22 -9 -21 -16 2 -6 -6 -12 -17 -12 -11 0
-20 -4 -20 -10 0 -5 -7 -10 -16 -10 -9 0 -18 -9 -21 -20 -4 -14 -14 -20 -34
-20 -24 0 -29 -4 -29 -25 0 -22 -4 -25 -38 -25 -21 0 -47 -7 -59 -15 -24 -17
-53 -11 -53 11 0 8 -3 14 -7 14 -13 0 -32 49 -22 56 22 13 -4 21 -28 9 -28
-15 -48 -11 -24 4 8 5 9 10 3 12 -21 8 -13 109 9 109 5 0 9 4 9 10 0 5 -8 6
-17 3 -16 -6 -16 -5 -5 10 8 9 11 20 8 25 -3 6 1 15 9 22 11 9 14 27 12 62 -4
40 0 52 18 70 19 19 21 26 13 56 -8 28 -6 36 9 47 17 13 17 14 1 20 -10 4 -18
14 -18 22 0 8 4 11 10 8 6 -3 7 1 4 9 -4 9 1 18 10 22 9 3 16 12 16 20 0 8 8
14 18 14 15 1 14 2 -3 12 -11 6 -23 16 -27 22 -5 7 -8 7 -8 -2 0 -7 -4 -11
-10 -7 -5 3 -6 15 -1 27 10 27 -12 92 -33 96 -11 3 -13 9 -7 26 5 13 5 29 0
39 -7 11 -6 17 1 17 5 0 10 5 10 11 0 6 -9 8 -20 4 -12 -4 -27 -2 -34 5 -11 8
-19 5 -36 -17 -15 -20 -23 -24 -29 -14 -9 14 -2 61 8 61 4 0 8 14 8 31 0 17 5
34 11 38 18 11 32 145 35 334 2 88 6 120 16 126 7 5 11 14 7 20 -4 6 1 22 10
36 10 16 14 34 10 52 -5 21 -4 24 4 13 8 -12 10 -9 10 12 0 15 7 46 16 68 9
22 13 51 10 64 -3 14 -1 28 5 32 8 4 7 9 -2 15 -11 7 -9 10 9 15 15 4 22 14
22 31 0 13 4 22 8 19 5 -3 19 6 30 19 12 14 26 25 32 25 5 0 10 7 10 15 0 8 3
14 8 13 14 -3 47 16 78 44 34 31 163 98 188 98 9 0 16 4 16 9 0 14 124 64 213
85 62 15 178 7 185 -14 2 -5 8 -10 13 -10 5 0 33 -16 61 -35 28 -20 56 -34 62
-32 14 5 20 75 7 90 -6 8 -6 18 -1 27 5 8 7 25 3 37 -3 14 -1 23 7 23 7 0 6 6
-4 16 -10 9 -14 25 -11 40 3 13 7 35 10 48 3 14 2 27 -3 30 -9 5 -8 38 2 76 3
14 0 43 -8 65 -9 27 -11 46 -5 57 6 11 6 18 1 18 -5 0 -9 34 -8 75 1 41 -2 76
-8 78 -5 2 -13 30 -17 63 -5 32 -13 79 -18 104 -7 32 -6 49 2 59 9 12 9 13 0
7 -13 -7 -17 7 -15 44 0 8 -4 22 -9 31 -4 9 -11 36 -14 59 -3 23 -8 46 -11 51
-3 5 0 9 5 9 6 0 2 9 -9 20 -11 11 -22 40 -26 70 -4 28 -12 57 -19 64 -7 7
-19 38 -26 69 -8 32 -19 57 -26 57 -17 0 -33 33 -33 67 0 18 -10 38 -30 56
-28 27 -42 56 -20 42 14 -9 12 1 -4 17 -21 21 -30 58 -14 59 7 0 5 4 -5 8 -10
4 -18 10 -18 14 1 4 -8 16 -19 27 -11 11 -20 29 -20 40 0 12 -7 20 -16 20 -10
0 -15 8 -13 23 1 12 -1 29 -4 37 -18 49 -27 89 -21 103 3 10 1 17 -5 17 -6 0
-11 7 -11 15 0 8 -4 23 -9 33 -5 9 -22 62 -37 117 -14 55 -30 105 -34 110 -4
6 -11 25 -15 43 -3 17 -10 32 -14 32 -3 0 -13 21 -21 47 -7 26 -19 59 -27 73
-7 14 -13 34 -13 45 0 11 -9 31 -20 45 -11 14 -20 35 -20 48 0 12 -4 22 -10
22 -5 0 -10 10 -10 22 0 11 -11 36 -25 54 -14 18 -25 37 -25 42 0 5 -22 49
-50 98 -27 49 -50 94 -50 99 0 6 -9 16 -20 23 -11 7 -20 18 -20 25 0 6 -12 23
-25 36 -14 13 -25 27 -25 32 0 5 -6 9 -14 9 -8 0 -17 11 -20 25 -4 14 -18 31
-31 37 -14 6 -27 19 -30 29 -3 10 -14 20 -23 23 -9 3 -32 20 -50 37 -20 19
-39 29 -49 25 -11 -4 -14 -2 -9 9 4 12 -6 21 -16 13 -2 -1 -27 15 -57 35 -29
20 -61 38 -70 39 -23 2 -34 4 -51 11 -69 27 -176 58 -207 60 -21 1 -44 6 -51
10 -15 10 -299 7 -328 -4 -11 -4 -28 -2 -39 3 -15 9 -17 8 -12 -7z m320 -239
c24 -6 40 -36 19 -36 -5 0 -15 -11 -22 -25 -14 -27 -35 -33 -43 -12 -2 6 0 20
5 30 5 10 5 25 -2 37 -8 15 -7 19 2 16 7 -3 25 -7 41 -10z m-718 -103 c26 -4
242 -14 278 -14 15 0 26 -3 23 -7 -8 -13 30 -31 45 -21 23 14 39 11 32 -8 -5
-13 -1 -15 24 -10 17 3 41 0 56 -8 15 -8 27 -12 27 -9 0 3 10 0 21 -7 16 -8
23 -8 29 0 8 14 40 4 40 -13 0 -6 12 -12 27 -13 15 0 29 -6 31 -12 2 -6 8 -9
13 -5 5 3 15 2 21 -2 7 -5 19 -9 28 -10 8 -1 23 -5 33 -9 10 -4 17 -3 17 4 0
6 5 11 10 11 6 0 10 -7 10 -16 0 -8 5 -12 10 -9 6 3 10 0 10 -8 0 -19 22 -27
51 -20 15 4 26 0 35 -12 8 -10 20 -15 29 -11 9 3 13 2 10 -4 -3 -6 3 -10 14
-10 11 0 23 -5 26 -11 4 -6 14 -8 23 -4 9 3 13 3 10 -1 -4 -3 0 -13 8 -22 14
-13 17 -13 25 -1 7 11 9 10 9 -5 0 -12 5 -16 16 -12 8 3 12 2 9 -3 -8 -14 13
-24 47 -23 25 1 28 -2 22 -20 -5 -17 -3 -20 10 -15 10 4 19 1 22 -8 4 -8 12
-15 20 -15 8 0 11 -6 8 -15 -4 -8 -1 -15 6 -15 7 0 10 -7 6 -16 -4 -12 -2 -15
9 -10 8 3 15 2 15 -3 0 -4 16 -24 35 -44 19 -20 35 -42 35 -49 0 -9 -3 -9 -10
2 -6 10 -10 11 -10 3 0 -19 -18 -15 -24 5 -7 19 -46 25 -58 8 -5 -8 -8 -8 -8
0 0 25 -72 82 -94 75 -12 -3 -55 19 -74 37 -7 6 -20 12 -28 12 -8 0 -14 4 -14
10 0 5 -20 15 -45 21 -24 6 -55 21 -68 33 -12 11 -30 20 -40 18 -9 -2 -17 1
-17 7 0 6 -19 15 -42 22 -24 6 -48 15 -55 21 -7 5 -17 7 -24 3 -6 -4 -14 -2
-18 4 -4 6 -31 15 -60 20 -29 4 -57 13 -64 20 -6 6 -30 11 -54 11 -24 0 -43 3
-43 8 0 4 -16 8 -36 8 -20 1 -39 6 -43 11 -3 5 -26 10 -51 12 -24 1 -47 6 -50
12 -4 5 -17 8 -31 5 -13 -2 -33 2 -44 8 -11 6 -27 11 -35 11 -38 2 -117 17
-140 27 -14 6 -28 11 -32 10 -4 -1 -20 3 -35 10 -38 15 -37 15 -87 17 -28 1
-46 6 -49 15 -4 10 -1 13 8 10 7 -3 23 0 35 6 27 15 111 29 125 21 6 -3 19 -7
30 -8z m825 -173 c-8 -5 -17 -7 -19 -4 -3 3 1 9 9 14 8 5 17 7 19 4 3 -3 -1
-9 -9 -14z m-300 -370 c0 -5 -5 -10 -11 -10 -5 0 -7 5 -4 10 3 6 8 10 11 10 2
0 4 -4 4 -10z m217 -152 c-3 -7 -5 -2 -5 12 0 14 2 19 5 13 2 -7 2 -19 0 -25z
m808 -1058 c3 -5 1 -10 -4 -10 -6 0 -11 5 -11 10 0 6 2 10 4 10 3 0 8 -4 11
-10z m-75 -56 c0 -8 -4 -12 -10 -9 -5 3 -10 10 -10 16 0 5 5 9 10 9 6 0 10 -7
10 -16z m-70 -146 c0 -13 -23 -5 -28 10 -2 7 2 10 12 6 9 -3 16 -11 16 -16z
m24 -49 c-3 -5 -10 -7 -15 -3 -5 3 -7 10 -3 15 3 5 10 7 15 3 5 -3 7 -10 3
-15z m69 -74 c-3 -8 -12 -15 -19 -15 -12 0 -12 4 -4 20 12 23 32 18 23 -5z
m-188 -35 c3 -5 1 -10 -4 -10 -6 0 -11 5 -11 10 0 6 2 10 4 10 3 0 8 -4 11
-10z m130 -9 c3 -5 1 -12 -5 -16 -5 -3 -10 1 -10 9 0 18 6 21 15 7z m5 -147
c0 -14 -4 -23 -10 -19 -5 3 -10 1 -10 -6 0 -7 -2 -10 -5 -7 -4 4 16 58 23 58
1 0 2 -12 2 -26z m0 -94 c0 -5 -4 -10 -10 -10 -5 0 -10 5 -10 10 0 6 5 10 10
10 6 0 10 -4 10 -10z m37 -117 c-3 -3 -11 -2 -17 2 -9 6 -9 10 1 16 14 8 27
-7 16 -18z m-47 -93 c0 -5 -4 -10 -10 -10 -5 0 -10 5 -10 10 0 6 5 10 10 10 6
0 10 -4 10 -10z m20 -14 c0 -12 -33 -35 -42 -30 -5 3 1 12 14 19 29 16 28 16
28 11z m-77 -118 c-3 -15 -9 -25 -14 -22 -5 3 -9 0 -9 -6 0 -6 -4 -9 -8 -6
-16 9 -6 49 14 57 24 8 23 9 17 -23z m-87 -87 c-4 -5 -14 -8 -24 -5 -15 5 -15
4 -2 -6 11 -9 12 -13 3 -17 -7 -2 -13 -18 -13 -34 0 -16 -5 -29 -11 -29 -7 0
-9 12 -5 34 4 20 2 37 -4 41 -5 3 -10 1 -10 -5 0 -6 -5 -8 -10 -5 -7 4 -2 14
12 26 13 10 28 23 33 28 13 12 40 -13 31 -28z m19 -111 c20 17 35 3 35 -31 0
-34 -15 -38 -31 -8 -7 14 -14 18 -18 11 -4 -7 -12 -8 -21 -2 -12 8 -12 12 0
36 14 26 15 27 18 5 3 -18 6 -20 17 -11z m90 -179 c3 -5 1 -12 -5 -16 -5 -3
-10 1 -10 9 0 18 6 21 15 7z m-135 -756 c0 -8 -4 -15 -10 -15 -5 0 -10 7 -10
15 0 8 5 15 10 15 6 0 10 -7 10 -15z m-100 -234 c0 -6 -4 -13 -10 -16 -5 -3
-10 1 -10 9 0 9 5 16 10 16 6 0 10 -4 10 -9z m60 -26 c23 -12 30 -22 30 -45 0
-34 -19 -50 -32 -26 -9 17 -38 22 -38 7 0 -5 -8 -11 -18 -13 -15 -4 -19 1 -20
28 -1 24 3 34 13 34 9 0 12 6 9 15 -8 20 18 20 56 0z m-150 -15 c0 -5 -4 -10
-10 -10 -5 0 -10 5 -10 10 0 6 5 10 10 10 6 0 10 -4 10 -10z m70 -114 c0 -31
-10 -56 -21 -56 -10 0 -12 40 -3 64 9 24 24 19 24 -8z m226 -81 c8 -21 -6 -41
-17 -24 -12 19 -11 39 1 39 6 0 13 -7 16 -15z m-4131 -475 c3 -5 -1 -10 -9
-10 -9 0 -16 5 -16 10 0 6 4 10 9 10 6 0 13 -4 16 -10z m3505 0 c0 -5 -4 -10
-10 -10 -5 0 -10 5 -10 10 0 6 5 10 10 10 6 0 10 -4 10 -10z m-20 -35 c0 -9
-6 -12 -15 -9 -8 4 -12 10 -9 15 8 14 24 10 24 -6z m-25 -25 c3 -5 1 -10 -4
-10 -6 0 -11 5 -11 10 0 6 2 10 4 10 3 0 8 -4 11 -10z m-3265 -65 c-7 -9 -15
-13 -18 -10 -3 2 1 11 8 20 7 9 15 13 18 10 3 -2 -1 -11 -8 -20z m170 -101
c-18 -21 -24 -10 -8 15 7 12 14 17 16 11 2 -6 -2 -17 -8 -26z m2655 -55 c4
-11 4 -23 0 -27 -7 -7 -25 17 -25 36 0 20 18 14 25 -9z m-2555 -46 c-10 -16
-11 -15 -6 7 3 14 6 32 7 40 1 8 4 5 6 -7 2 -12 -1 -30 -7 -40z m3660 17 c0
-5 -4 -10 -10 -10 -5 0 -10 5 -10 10 0 6 5 10 10 10 6 0 10 -4 10 -10z m-1210
-45 c11 -28 5 -51 -16 -59 -11 -4 -14 5 -14 39 0 49 15 59 30 20z m-3100 -59
c0 -3 -4 -8 -10 -11 -5 -3 -10 -1 -10 4 0 6 5 11 10 11 6 0 10 -2 10 -4z
m3160 -60 c0 -3 -4 -8 -10 -11 -5 -3 -10 -1 -10 4 0 6 5 11 10 11 6 0 10 -2
10 -4z m-2298 -154 c-27 -49 -41 -64 -53 -56 -14 9 0 46 26 65 14 11 25 27 25
34 0 8 6 12 14 9 11 -4 9 -15 -12 -52z m218 -82 c0 -5 -2 -10 -4 -10 -3 0 -8
5 -11 10 -3 6 -1 10 4 10 6 0 11 -4 11 -10z m70 -42 c0 -19 -2 -20 -10 -8 -13
19 -13 30 0 30 6 0 10 -10 10 -22z m-25 -29 c11 -17 -1 -21 -15 -4 -8 9 -8 15
-2 15 6 0 14 -5 17 -11z m321 -79 c9 0 13 -9 12 -25 -2 -23 -18 -37 -18 -15 0
6 -6 10 -14 10 -9 0 -12 8 -8 28 3 15 7 21 9 15 3 -7 11 -13 19 -13z m734 -10
c0 -5 -5 -10 -11 -10 -5 0 -7 5 -4 10 3 6 8 10 11 10 2 0 4 -4 4 -10z m-740
-84 c0 -15 -18 -31 -26 -23 -7 7 7 37 17 37 5 0 9 -6 9 -14z m-142 -56 c-7
-10 -14 -18 -15 -16 -6 6 9 36 18 36 5 0 4 -9 -3 -20z m-944 -97 c5 -12 9 -14
18 -5 7 7 16 12 20 12 12 0 10 -34 -3 -47 -8 -8 -6 -15 10 -25 11 -7 21 -19
21 -26 0 -16 -24 -42 -40 -42 -6 0 -10 -8 -8 -17 2 -12 12 -17 28 -16 15 1 18
0 7 -3 -9 -3 -26 -23 -37 -45 -11 -21 -25 -39 -30 -39 -14 0 -13 4 11 45 27
45 17 57 -16 20 -28 -29 -48 -27 -24 2 20 25 40 63 34 63 -3 0 -19 -7 -35 -15
-29 -15 -30 -15 -21 7 12 29 25 79 25 98 1 8 7 16 14 16 25 3 25 4 6 19 -16
12 -17 14 -3 15 9 0 20 -8 23 -17z m342 -43 c6 0 15 -11 18 -25 4 -14 13 -25
21 -25 7 0 16 -9 20 -19 3 -11 12 -21 20 -23 10 -2 9 -9 -6 -27 l-20 -25 6 27
c4 16 3 27 -3 27 -12 0 -22 -59 -10 -66 12 -7 10 -24 -3 -24 -6 0 -28 -18 -49
-41 -22 -23 -40 -36 -44 -30 -4 5 -13 8 -21 4 -11 -4 -13 -1 -9 11 4 9 1 16
-6 16 -8 0 -11 11 -8 30 4 24 1 30 -14 30 -12 0 -18 7 -18 24 0 14 -4 28 -10
31 -6 3 -10 -5 -10 -18 0 -24 -23 -42 -40 -32 -5 3 -7 13 -4 23 5 14 4 14 -4
2 -6 -8 -8 -26 -5 -41 5 -27 -17 -54 -25 -30 -3 9 -8 9 -20 -1 -14 -11 -15
-10 -9 6 16 42 63 105 75 101 15 -5 16 11 1 21 -8 5 -8 9 1 14 7 4 8 10 3 13
-6 4 -19 -3 -31 -13 -32 -30 -48 -25 -50 16 -2 27 1 35 11 31 7 -3 24 1 38 9
23 13 23 13 -10 7 -31 -6 -33 -5 -20 9 8 9 16 13 19 9 3 -4 17 -6 32 -6 15 1
30 -5 33 -13 3 -7 9 -10 15 -7 6 4 8 10 5 15 -3 5 -1 11 5 15 5 3 10 2 10 -3
0 -13 43 -2 52 12 5 7 8 6 8 -4 0 -11 4 -9 12 5 12 19 13 19 22 -7 5 -16 15
-28 22 -28z m-869 -92 c-3 -7 -5 -2 -5 12 0 14 2 19 5 13 2 -7 2 -19 0 -25z
m57 -40 c-4 -13 -7 -31 -5 -40 1 -10 -2 -18 -7 -18 -16 0 -21 12 -12 33 5 12
11 31 14 41 4 10 9 16 12 13 3 -3 2 -16 -2 -29z m916 2 c0 -5 -4 -10 -10 -10
-5 0 -10 5 -10 10 0 6 5 10 10 10 6 0 10 -4 10 -10z m-13 -42 c-3 -8 -6 -5 -6
6 -1 11 2 17 5 13 3 -3 4 -12 1 -19z m-507 -45 c0 -14 -19 -38 -25 -32 -8 8 5
39 16 39 5 0 9 -3 9 -7z m50 -7 c0 -3 -4 -8 -10 -11 -5 -3 -10 -1 -10 4 0 6 5
11 10 11 6 0 10 -2 10 -4z m100 0 c0 -2 -7 -7 -16 -10 -8 -3 -12 -2 -9 4 6 10
25 14 25 6z m293 -56 c-8 -29 -23 -13 -23 23 1 29 2 30 14 14 8 -10 12 -27 9
-37z m-103 6 c0 -3 -4 -8 -10 -11 -5 -3 -10 -1 -10 4 0 6 5 11 10 11 6 0 10
-2 10 -4z m10 -151 c-12 -25 -25 -45 -30 -45 -12 0 -21 45 -10 48 6 2 8 8 4
13 -3 5 1 9 8 9 8 0 20 15 27 33 13 30 14 30 18 9 3 -12 -5 -43 -17 -67z
m-129 32 c-8 -8 -11 -7 -11 4 0 20 13 34 18 19 3 -7 -1 -17 -7 -23z m-713 -18
c-2 -6 -8 -10 -13 -10 -5 0 -11 4 -13 10 -2 6 4 11 13 11 9 0 15 -5 13 -11z
m1242 -713 c0 -3 -4 -8 -10 -11 -5 -3 -10 -1 -10 4 0 6 5 11 10 11 6 0 10 -2
10 -4z m124 -141 c-23 -36 -29 -24 -8 17 9 18 19 28 21 21 2 -6 -3 -23 -13
-38z m-1437 -217 c-3 -8 -6 -5 -6 6 -1 11 2 17 5 13 3 -3 4 -12 1 -19z m60
-12 c-3 -8 -1 -17 6 -20 7 -3 1 -4 -12 -3 -30 2 -39 23 -14 30 10 3 20 5 22 6
2 0 1 -5 -2 -13z m-117 -86 c0 -5 -2 -10 -4 -10 -3 0 -8 5 -11 10 -3 6 -1 10
4 10 6 0 11 -4 11 -10z m4196 -36 c-3 -9 -6 -22 -6 -29 0 -8 -6 -20 -12 -27
-7 -7 -19 -25 -27 -40 -7 -14 -22 -29 -32 -31 -22 -6 -22 -6 -9 28 5 14 14 23
20 20 5 -3 10 1 10 9 0 9 5 15 11 14 13 -3 31 50 23 64 -3 4 2 8 11 8 12 0 15
-5 11 -16z m-876 -811 c0 -15 -2 -15 -24 -7 -22 9 -20 20 4 20 11 0 20 -6 20
-13z m-107 -8 c-3 -9 -8 -14 -10 -11 -3 3 -2 9 2 15 9 16 15 13 8 -4z m-123
-31 c0 -17 -22 -14 -28 4 -2 7 3 12 12 12 9 0 16 -7 16 -16z m120 -10 c0 -8
-5 -12 -10 -9 -6 4 -8 11 -5 16 9 14 15 11 15 -7z m-150 -28 c0 -3 -4 -8 -10
-11 -5 -3 -10 -1 -10 4 0 6 5 11 10 11 6 0 10 -2 10 -4z m45 -23 c4 -18 9 -23
14 -15 14 23 33 -11 22 -39 l-9 -24 -11 29 c-9 23 -16 27 -35 22 -32 -8 -38 2
-18 30 22 30 28 30 37 -3z m-68 -26 c16 -10 17 -27 2 -27 -18 0 -39 28 -39 52
1 22 1 22 12 3 6 -11 17 -24 25 -28z m-61 -3 c-4 -9 -9 -15 -11 -12 -3 3 -3
13 1 22 4 9 9 15 11 12 3 -3 3 -13 -1 -22z m-96 6 c0 -5 -2 -10 -4 -10 -3 0
-8 5 -11 10 -3 6 -1 10 4 10 6 0 11 -4 11 -10z m750 -15 c0 -8 -7 -15 -15 -15
-9 0 -12 6 -9 15 4 8 10 15 15 15 5 0 9 -7 9 -15z m-45 -5 c3 -5 -1 -10 -10
-10 -9 0 -13 5 -10 10 3 6 8 10 10 10 2 0 7 -4 10 -10z m-480 -32 c-3 -13 -9
-39 -11 -58 -5 -37 -10 -46 -16 -33 -8 14 13 113 24 113 6 0 8 -9 3 -22z
m-148 6 c-3 -3 -12 -4 -19 -1 -8 3 -5 6 6 6 11 1 17 -2 13 -5z m108 -14 c3 -5
1 -10 -4 -10 -6 0 -11 5 -11 10 0 6 2 10 4 10 3 0 8 -4 11 -10z m-265 -60 c0
-5 -5 -10 -11 -10 -5 0 -7 5 -4 10 3 6 8 10 11 10 2 0 4 -4 4 -10z m75 0 c3
-5 1 -10 -4 -10 -6 0 -11 5 -11 10 0 6 2 10 4 10 3 0 8 -4 11 -10z"/>
<path d="M3410 2715 c0 -8 2 -15 4 -15 2 0 6 7 10 15 3 8 1 15 -4 15 -6 0 -10
-7 -10 -15z"/>
<path d="M5685 8349 c-4 -6 -4 -13 -1 -16 3 -4 6 -1 6 6 0 7 5 9 10 6 6 -3 10
-1 10 4 0 14 -17 14 -25 0z"/>
<path d="M6075 8290 c-3 -5 -1 -10 4 -10 6 0 11 5 11 10 0 6 -2 10 -4 10 -3 0
-8 -4 -11 -10z"/>
<path d="M3825 8131 c-3 -5 -1 -12 4 -15 5 -3 7 -16 3 -28 -3 -12 -1 -19 4
-15 13 7 17 67 5 67 -6 0 -12 -4 -16 -9z"/>
<path d="M3770 8090 c0 -5 5 -10 11 -10 5 0 7 5 4 10 -3 6 -8 10 -11 10 -2 0
-4 -4 -4 -10z"/>
<path d="M6448 8073 c7 -3 16 -2 19 1 4 3 -2 6 -13 5 -11 0 -14 -3 -6 -6z"/>
<path d="M3767 8040 c-3 -11 -1 -20 4 -20 5 0 9 2 9 4 0 2 3 11 6 20 3 9 2 16
-4 16 -5 0 -12 -9 -15 -20z"/>
<path d="M3805 8050 c3 -5 8 -10 11 -10 2 0 4 5 4 10 0 6 -5 10 -11 10 -5 0
-7 -4 -4 -10z"/>
<path d="M6530 8031 c0 -6 5 -13 10 -16 6 -3 10 1 10 9 0 9 -4 16 -10 16 -5 0
-10 -4 -10 -9z"/>
<path d="M3713 8000 c-1 -11 0 -20 2 -20 2 0 9 9 15 20 8 15 8 20 -3 20 -7 0
-13 -9 -14 -20z"/>
<path d="M3630 7940 c0 -5 5 -10 10 -10 6 0 10 5 10 10 0 6 -4 10 -10 10 -5 0
-10 -4 -10 -10z"/>
<path d="M3620 7912 c0 -5 -12 -15 -27 -22 -18 -8 -23 -14 -15 -17 8 -3 19 0
25 6 6 6 19 11 30 11 10 0 17 5 15 12 -5 14 -28 23 -28 10z"/>
<path d="M3568 7853 c7 -3 16 -2 19 1 4 3 -2 6 -13 5 -11 0 -14 -3 -6 -6z"/>
<path d="M7070 7220 c0 -5 5 -10 10 -10 6 0 10 5 10 10 0 6 -4 10 -10 10 -5 0
-10 -4 -10 -10z"/>
<path d="M7323 6835 c-7 -8 -13 -21 -13 -29 0 -20 -17 -29 -23 -14 -3 7 -6 9
-6 3 -1 -17 13 -32 37 -40 25 -7 25 -2 5 53 -3 6 2 12 11 12 9 0 16 7 16 15 0
19 -11 19 -27 0z"/>
<path d="M7252 6737 c-30 -32 -28 -54 7 -71 l29 -15 4 39 c2 27 -1 41 -10 45
-7 3 -10 9 -7 15 11 17 -1 11 -23 -13z"/>
<path d="M4959 6674 c0 -11 -3 -13 -6 -6 -7 18 -37 15 -68 -9 -21 -17 -29 -19
-35 -9 -4 7 -15 10 -23 7 -9 -3 -17 -1 -20 6 -2 8 -10 6 -22 -7 -13 -12 -27
-16 -47 -12 -15 3 -28 1 -28 -4 0 -6 5 -10 10 -10 6 0 10 -9 10 -20 0 -11 -7
-20 -15 -20 -8 0 -15 4 -15 9 0 5 -30 9 -67 9 -43 0 -61 -2 -48 -7 19 -8 19
-8 -3 -15 -12 -4 -32 -17 -43 -29 -13 -14 -22 -18 -27 -11 -10 14 -42 25 -42
14 0 -5 5 -12 10 -15 6 -4 8 -11 5 -16 -4 -5 -14 -2 -23 7 -10 11 -17 13 -20
5 -2 -6 -10 -11 -18 -11 -8 0 -14 -7 -14 -16 0 -8 -4 -12 -10 -9 -5 3 -10 -1
-10 -9 0 -9 -5 -16 -11 -16 -5 0 -7 5 -3 11 4 7 1 10 -7 7 -8 -3 -13 -10 -12
-16 2 -6 -4 -9 -12 -6 -8 4 -15 1 -15 -5 0 -6 -9 -11 -20 -11 -11 0 -20 -6
-20 -13 0 -7 -9 -13 -20 -13 -12 0 -20 7 -20 16 0 9 -3 19 -6 23 -11 10 -61
-21 -83 -51 -14 -20 -28 -29 -43 -27 -34 4 -34 4 -18 16 12 8 9 10 -12 6 -26
-4 -28 -2 -28 32 l-1 36 -21 -45 c-11 -25 -26 -59 -34 -76 -11 -25 -19 -30
-43 -29 -16 1 -36 7 -44 13 -19 16 -40 -8 -41 -48 -1 -23 3 -30 17 -30 11 0
17 -5 14 -12 -2 -7 -13 -12 -23 -11 -11 1 -8 -3 9 -10 27 -11 39 -34 12 -23
-12 4 -15 -3 -15 -34 0 -21 4 -42 10 -45 6 -3 7 1 4 9 -3 9 -2 16 4 16 5 0 12
-10 16 -22 9 -33 8 -38 -8 -38 -11 0 -15 -11 -13 -40 1 -22 4 -40 8 -40 3 0 6
-19 5 -42 0 -25 4 -43 12 -46 6 -2 12 -15 12 -28 0 -14 -4 -22 -10 -19 -5 3
-10 0 -10 -8 0 -8 7 -17 15 -21 8 -3 12 -12 9 -21 -3 -8 -1 -15 5 -15 6 0 11
-11 11 -24 0 -15 7 -26 20 -29 12 -3 20 -14 20 -25 0 -23 19 -33 49 -25 14 4
21 1 21 -10 0 -8 9 -17 20 -20 13 -3 18 -10 14 -21 -4 -11 -1 -16 10 -16 9 0
16 -5 16 -11 0 -8 5 -7 15 1 14 11 14 10 6 -14 -9 -21 -8 -26 4 -26 8 0 15 -4
15 -8 0 -5 18 -14 39 -21 36 -10 48 -9 91 6 26 10 54 2 75 -23 18 -21 27 -24
77 -20 31 2 61 7 67 11 6 3 11 1 11 -4 0 -6 16 -11 35 -11 23 0 34 -4 32 -12
-1 -9 9 -12 35 -10 20 2 47 -2 59 -9 19 -9 24 -9 34 5 7 9 21 16 31 16 11 0
29 6 39 14 18 12 23 12 44 -5 18 -15 21 -23 13 -31 -26 -26 -13 -38 24 -22 20
8 49 13 64 10 17 -2 31 1 34 7 3 9 7 9 13 0 5 -7 17 -12 28 -12 11 1 29 -2 41
-6 15 -5 23 0 31 18 7 14 9 34 6 46 -3 12 -1 21 3 22 5 0 19 2 32 5 12 2 22
-1 22 -6 0 -6 5 -10 10 -10 6 0 10 7 10 15 0 8 9 15 20 15 11 0 20 4 20 9 0
10 41 23 49 16 2 -3 -3 -11 -13 -18 -14 -10 -15 -18 -7 -39 5 -14 7 -36 5 -49
l-6 -24 20 23 c14 15 22 18 26 10 3 -7 3 -1 0 15 -4 18 -2 27 6 27 7 0 10 7 6
15 -7 20 8 19 29 -1 15 -15 17 -15 21 3 5 19 35 25 50 10 4 -4 13 1 20 11 8
10 13 12 14 5 0 -16 54 -11 75 7 8 7 15 9 15 4 0 -5 6 -2 13 6 7 9 23 16 37
16 32 0 35 34 4 49 -11 5 -19 16 -16 23 2 6 -4 12 -13 12 -10 0 -27 9 -39 21
-29 28 -87 48 -161 55 -33 3 -67 8 -75 11 -8 4 -23 5 -32 4 -10 -1 -26 2 -36
8 -28 15 -200 17 -214 3 -7 -7 -19 -12 -27 -11 -11 0 -12 2 -3 6 26 10 11 25
-20 20 -18 -4 -71 -9 -118 -12 -133 -9 -153 -12 -166 -29 -6 -9 -21 -16 -33
-16 -11 0 -21 -4 -21 -9 0 -13 -35 -20 -53 -9 -9 5 -14 15 -10 24 5 13 7 13
14 2 7 -10 9 -11 9 0 0 7 4 10 10 7 5 -3 7 0 4 9 -7 17 23 66 40 66 7 0 19 11
26 25 8 14 24 28 37 31 32 8 24 28 -13 31 -102 9 -148 42 -140 101 4 28 2 32
-17 33 -16 0 -18 2 -7 7 8 4 15 18 15 32 0 20 7 27 40 38 65 20 67 21 60 32
-5 8 -11 7 -21 -1 -10 -8 -14 -8 -14 0 0 6 3 11 8 11 4 0 16 14 27 30 22 33
55 40 55 13 1 -16 2 -16 16 2 8 11 12 30 9 43 -3 12 -1 22 5 22 6 0 8 -4 5
-10 -3 -5 -1 -10 4 -10 6 0 11 5 11 10 0 6 7 10 16 10 8 0 13 4 10 9 -7 11 68
57 107 66 15 4 27 12 27 18 0 6 3 7 7 4 3 -4 12 -2 20 5 16 13 73 21 73 10 0
-4 20 -6 45 -4 31 3 48 10 55 22 8 15 16 17 47 10 21 -5 39 -14 41 -19 6 -18
32 -12 33 7 0 14 2 14 7 2 4 -8 15 -16 26 -18 11 -2 15 1 11 7 -3 6 -1 11 4
11 6 0 11 -7 11 -16 0 -8 5 -12 10 -9 6 3 10 2 10 -3 0 -5 29 -5 66 -1 43 6
73 5 87 -3 12 -6 29 -14 37 -19 8 -4 14 -12 12 -18 -1 -6 2 -11 8 -11 9 0 26
67 21 84 -1 5 3 12 9 16 14 9 2 40 -16 40 -8 0 -21 8 -30 19 -9 10 -24 16 -35
14 -12 -4 -24 5 -37 27 -11 17 -21 27 -23 21 -3 -6 -25 0 -56 16 -28 15 -50
30 -47 35 3 4 0 8 -5 8 -6 0 -11 -5 -11 -11 0 -8 -5 -8 -15 1 -8 7 -12 16 -9
21 3 5 -4 9 -15 9 -12 0 -21 -6 -21 -12 0 -10 -3 -9 -9 1 -5 7 -13 11 -18 8
-6 -4 -18 0 -29 7 -13 10 -23 11 -35 3 -11 -7 -25 -7 -45 0 -16 6 -38 7 -49 3
-13 -5 -26 -2 -37 8 -16 14 -18 13 -19 -4z m-169 -78 c0 -9 -40 -13 -46 -5 -3
5 6 9 20 9 14 0 26 -2 26 -4z m-340 -476 c0 -5 -4 -10 -10 -10 -5 0 -10 5 -10
10 0 6 5 10 10 10 6 0 10 -4 10 -10z m60 -69 c0 -6 -4 -13 -10 -16 -5 -3 -10
1 -10 9 0 9 5 16 10 16 6 0 10 -4 10 -9z m381 -390 c0 -14 3 -20 6 -13 9 22
23 12 23 -17 0 -25 -5 -31 -30 -36 -23 -5 -30 -12 -30 -31 0 -14 -4 -23 -10
-19 -5 3 -7 12 -4 19 6 16 -18 27 -36 16 -7 -5 -20 0 -31 11 -10 10 -25 16
-33 13 -8 -3 -19 3 -26 15 -12 23 -5 45 11 36 5 -4 9 1 9 9 0 16 26 22 103 22
44 0 47 -2 48 -25z m69 -45 c0 -2 -7 -7 -16 -10 -8 -3 -12 -2 -9 4 6 10 25 14
25 6z"/>
<path d="M7128 6640 c-16 -18 -16 -19 3 -17 11 1 19 9 19 19 0 21 0 21 -22 -2z"/>
<path d="M7180 6470 c0 -5 5 -10 11 -10 5 0 7 5 4 10 -3 6 -8 10 -11 10 -2 0
-4 -4 -4 -10z"/>
<path d="M5540 6461 c0 -6 5 -13 10 -16 6 -3 10 1 10 9 0 9 -4 16 -10 16 -5 0
-10 -4 -10 -9z"/>
<path d="M5561 6414 c0 -11 3 -14 6 -6 3 7 2 16 -1 19 -3 4 -6 -2 -5 -13z"/>
<path d="M7160 6301 c0 -10 7 -24 15 -31 12 -10 15 -10 15 3 0 8 5 17 11 19 6
2 0 9 -15 16 -23 10 -26 9 -26 -7z"/>
<path d="M7200 6272 c0 -4 5 -13 12 -20 9 -9 9 -12 0 -12 -7 0 -11 -16 -10
-42 1 -67 -1 -78 -17 -78 -25 0 -17 -17 14 -28 25 -9 30 -8 34 8 3 13 0 17 -9
13 -20 -7 -17 4 5 28 11 12 24 18 29 15 10 -6 22 60 15 79 -5 13 -73 47 -73
37z"/>
<path d="M7287 6150 c6 -21 21 -35 29 -27 6 6 -18 47 -27 47 -4 0 -5 -9 -2
-20z"/>
<path d="M4577 6140 c-3 -13 0 -20 9 -20 15 0 19 26 5 34 -5 3 -11 -3 -14 -14z"/>
<path d="M7261 6102 c-12 -22 -6 -32 21 -32 21 0 24 23 4 39 -12 10 -17 8 -25
-7z"/>
<path d="M7210 6060 c0 -5 -7 -10 -15 -10 -8 0 -15 -8 -15 -19 0 -13 10 -20
37 -24 20 -4 39 -4 42 -2 2 3 -4 5 -14 5 -14 0 -16 6 -11 30 4 22 2 30 -9 30
-8 0 -15 -4 -15 -10z"/>
<path d="M3120 6010 c0 -13 -11 -16 -50 -14 -36 1 -50 -3 -50 -12 0 -7 -6 -11
-13 -8 -19 7 -42 -24 -58 -78 -7 -27 -17 -48 -22 -48 -4 0 -6 -4 -3 -9 3 -5
-2 -12 -11 -15 -14 -6 -15 -9 -4 -15 11 -7 11 -13 0 -32 -7 -13 -14 -26 -15
-29 0 -3 -3 -12 -6 -20 -27 -73 -44 -212 -30 -235 10 -15 8 -39 -3 -48 -6 -5
-5 -12 5 -20 8 -6 15 -18 16 -24 2 -29 5 -33 19 -33 9 0 18 -12 22 -30 3 -16
9 -31 14 -31 20 -3 25 -5 37 -12 8 -5 12 -3 12 7 0 9 4 16 8 16 5 0 9 -14 9
-30 0 -20 -3 -26 -9 -18 -6 10 -8 8 -8 -4 0 -10 6 -18 14 -18 21 0 29 -17 18
-36 -10 -17 12 -74 27 -74 5 0 19 -40 32 -90 12 -49 27 -90 31 -90 5 0 6 -4 3
-10 -3 -5 3 -10 15 -10 12 0 34 -7 50 -15 27 -14 29 -14 23 2 -4 10 -2 14 4
10 10 -6 31 10 32 23 0 9 41 102 77 176 19 40 34 75 34 78 0 4 20 41 43 84 68
119 140 265 168 339 7 20 10 73 8 145 0 10 -3 17 -7 17 -20 -3 -23 3 -11 18
12 15 12 16 -8 11 -16 -4 -24 -1 -29 14 -3 11 -3 22 0 25 10 10 -25 43 -45 43
-10 0 -21 5 -24 10 -3 6 -1 10 4 10 6 0 11 5 11 11 0 6 -16 9 -41 7 -33 -2
-44 1 -53 17 -15 26 -28 35 -41 27 -15 -10 -29 -9 -37 3 -5 6 -8 6 -8 -2 0
-15 -36 -17 -45 -3 -3 5 -24 8 -45 6 -30 -3 -43 0 -50 12 -8 15 -9 15 -10 2z
m70 -619 c0 -6 -9 -9 -20 -8 -11 1 -20 5 -20 9 0 4 9 8 20 8 11 0 20 -4 20 -9z
m-173 -53 c-3 -8 -6 -5 -6 6 -1 11 2 17 5 13 3 -3 4 -12 1 -19z"/>
<path d="M4563 5999 c-1 -10 2 -19 8 -19 11 0 12 27 1 34 -4 2 -9 -4 -9 -15z"/>
<path d="M5431 6006 c-9 -10 -3 -21 24 -43 19 -17 35 -35 35 -42 0 -6 7 -11
15 -11 8 0 14 -3 13 -7 -3 -11 25 -53 35 -53 5 0 24 -15 42 -34 18 -19 41 -37
51 -40 17 -5 19 -1 18 34 0 22 -4 43 -7 47 -4 3 -7 17 -7 29 0 13 -4 26 -10
29 -5 3 -10 1 -10 -6 0 -7 -7 -4 -15 7 -9 12 -14 14 -15 6 0 -7 -5 -10 -11 -7
-6 4 -8 13 -5 21 6 16 -10 29 -19 14 -6 -10 -35 10 -35 24 0 3 -8 14 -18 24
-22 21 -67 25 -81 8z m69 -10 c0 -3 -4 -8 -10 -11 -5 -3 -10 -1 -10 4 0 6 5
11 10 11 6 0 10 -2 10 -4z"/>
<path d="M7148 5655 c2 -14 8 -25 12 -25 4 0 5 11 2 25 -2 14 -8 25 -12 25 -4
0 -5 -11 -2 -25z"/>
<path d="M8040 5534 c0 -8 -9 -14 -19 -14 -11 0 -21 -3 -24 -7 -2 -5 -2 -2 -1
5 5 19 -14 14 -26 -8 -6 -11 -20 -20 -31 -20 -12 0 -17 -4 -13 -11 3 -6 17 -9
30 -6 18 3 24 0 24 -14 0 -11 4 -19 8 -19 5 0 7 -16 6 -35 -2 -19 1 -35 6 -35
6 0 10 7 10 15 0 26 18 16 25 -14 3 -16 13 -32 21 -35 8 -3 14 -10 14 -15 0
-5 -13 -3 -30 5 -27 14 -32 14 -45 0 -8 -8 -15 -19 -15 -25 0 -16 18 -13 28 5
8 14 12 14 46 0 21 -9 42 -14 46 -11 5 3 16 2 25 -1 13 -5 14 -8 3 -15 -9 -6
-7 -9 9 -9 56 0 153 -74 175 -132 5 -16 16 -28 24 -28 8 0 14 -7 14 -15 0 -8
6 -15 14 -15 7 0 22 -11 32 -25 10 -14 28 -25 39 -25 19 0 21 6 20 63 -2 98
-4 104 -31 136 -17 20 -24 39 -21 52 3 12 0 22 -9 26 -8 3 -14 12 -14 19 0 8
-6 17 -14 20 -7 3 -11 14 -9 28 4 17 -1 25 -17 29 -12 3 -24 15 -27 26 -3 12
-12 21 -19 21 -8 0 -14 6 -14 13 0 14 -58 52 -67 43 -3 -3 -11 1 -17 10 -7 10
-30 16 -59 17 -26 1 -47 5 -47 8 0 4 -11 7 -25 7 -15 0 -25 -6 -25 -14z m-2
-73 c10 -6 8 -10 -9 -14 -24 -7 -39 -1 -39 14 0 11 30 12 48 0z m42 -85 c0 -3
-4 -8 -10 -11 -5 -3 -10 -1 -10 4 0 6 5 11 10 11 6 0 10 -2 10 -4z"/>
<path d="M4783 5493 c-18 -7 -16 -23 2 -23 8 0 15 7 15 15 0 8 -1 15 -2 14 -2
0 -9 -3 -15 -6z"/>
<path d="M4935 5470 c-18 -8 -17 -9 8 -9 16 -1 26 3 22 9 -3 6 -7 10 -8 9 -1
0 -11 -4 -22 -9z"/>
<path d="M5269 5470 c-1 -8 -1 -18 0 -22 0 -5 -2 -7 -6 -6 -5 0 -15 -1 -23 -5
-8 -3 -22 -8 -30 -11 -8 -3 5 -4 30 -2 47 3 65 25 41 49 -8 8 -11 7 -12 -3z"/>
<path d="M5307 5469 c7 -7 15 -10 18 -7 3 3 -2 9 -12 12 -14 6 -15 5 -6 -5z"/>
<path d="M5147 5453 c-12 -12 -7 -22 8 -17 8 4 15 10 15 15 0 11 -14 12 -23 2z"/>
<path d="M7893 5453 c-7 -2 -13 -12 -13 -20 0 -9 -3 -13 -7 -10 -8 8 -35 -35
-52 -83 -7 -19 -18 -70 -26 -114 -11 -68 -11 -81 2 -96 15 -17 17 -17 52 3 20
12 38 24 41 27 3 4 14 10 25 14 15 5 16 9 6 15 -18 11 3 51 27 51 13 0 17 9
17 43 0 23 4 58 7 77 8 37 -11 69 -41 71 -10 0 -12 2 -3 6 6 2 12 9 12 14 0 9
-26 11 -47 2z m57 -47 c0 -3 -4 -8 -10 -11 -5 -3 -10 -1 -10 4 0 6 5 11 10 11
6 0 10 -2 10 -4z"/>
<path d="M4900 5419 c0 -5 5 -7 10 -4 6 3 10 8 10 11 0 2 -4 4 -10 4 -5 0 -10
-5 -10 -11z"/>
<path d="M5140 5406 c28 -17 60 -22 45 -7 -6 5 -23 12 -40 16 l-30 6 25 -15z"/>
<path d="M5235 5400 c3 -5 8 -10 11 -10 2 0 4 5 4 10 0 6 -5 10 -11 10 -5 0
-7 -4 -4 -10z"/>
<path d="M5029 5383 c-13 -16 -12 -17 4 -4 9 7 17 15 17 17 0 8 -8 3 -21 -13z"/>
<path d="M5105 5390 c3 -5 10 -10 16 -10 5 0 9 5 9 10 0 6 -7 10 -16 10 -8 0
-12 -4 -9 -10z"/>
<path d="M4920 5375 c0 -8 5 -15 10 -15 6 0 10 7 10 15 0 8 -4 15 -10 15 -5 0
-10 -7 -10 -15z"/>
<path d="M4970 5380 c0 -5 5 -10 11 -10 5 0 7 5 4 10 -3 6 -8 10 -11 10 -2 0
-4 -4 -4 -10z"/>
<path d="M7175 5330 c3 -5 10 -10 16 -10 5 0 9 5 9 10 0 6 -7 10 -16 10 -8 0
-12 -4 -9 -10z"/>
<path d="M7220 5266 c0 -27 14 -41 30 -31 8 5 7 11 0 20 -7 8 -9 19 -5 25 3 5
-1 10 -9 10 -10 0 -16 -9 -16 -24z"/>
<path d="M8073 5273 c9 -2 23 -2 30 0 6 3 -1 5 -18 5 -16 0 -22 -2 -12 -5z"/>
<path d="M7930 5219 c0 -5 5 -7 10 -4 6 3 10 8 10 11 0 2 -4 4 -10 4 -5 0 -10
-5 -10 -11z"/>
<path d="M7140 5160 c0 -16 4 -30 8 -30 5 0 7 14 4 30 -2 17 -6 30 -8 30 -2 0
-4 -13 -4 -30z"/>
<path d="M7769 5093 c-1 -5 -3 -19 -4 -33 -6 -46 -47 -143 -55 -130 -6 10 -8
10 -12 0 -2 -8 -12 -14 -21 -16 -14 -2 -15 1 -7 17 7 13 7 19 0 19 -5 0 -10
-5 -10 -11 0 -8 -5 -8 -15 1 -10 9 -15 9 -15 1 0 -6 5 -11 10 -11 6 0 10 -11
10 -25 0 -20 5 -24 22 -22 24 2 39 -30 20 -42 -6 -3 -15 -38 -20 -76 -6 -39
-14 -79 -18 -89 -5 -13 -4 -17 4 -12 6 3 13 2 17 -4 3 -5 -1 -10 -10 -10 -13
0 -14 -4 -4 -22 9 -16 9 -23 0 -26 -6 -2 -11 -9 -11 -16 0 -18 -24 -66 -32
-66 -5 0 -8 -15 -8 -32 0 -23 3 -29 9 -19 6 9 18 11 35 7 27 -7 36 7 14 20 -8
5 -2 12 17 20 25 11 20 20 -7 15 -5 0 -8 6 -8 15 0 11 6 14 21 9 17 -6 20 -4
13 6 -11 18 -5 62 9 71 8 5 5 9 -7 14 -11 4 -14 9 -7 14 7 3 13 20 14 37 1 17
4 31 7 31 17 -1 49 16 44 23 -3 5 -1 9 5 9 5 0 13 -5 16 -11 4 -6 14 -8 22 -5
8 3 12 2 9 -3 -7 -10 30 -29 64 -34 14 -1 35 -8 46 -15 12 -6 25 -8 29 -4 3 4
5 0 3 -8 -1 -8 3 -14 10 -12 6 1 12 -3 12 -8 0 -6 12 -9 28 -7 25 3 27 7 27
55 1 29 -3 52 -7 52 -4 0 -8 5 -8 11 0 18 -43 99 -52 99 -4 0 -8 4 -8 10 0 5
7 7 15 4 8 -4 15 -1 15 5 0 6 -9 11 -21 11 -11 0 -17 4 -14 10 8 13 -22 58
-43 63 -15 4 -15 5 1 6 28 2 19 21 -10 21 -38 0 -130 47 -106 53 17 4 17 5 0
6 -14 1 -17 6 -12 21 4 11 2 20 -4 20 -6 0 -12 -3 -12 -7z"/>
<path d="M7670 4869 c0 -5 5 -7 10 -4 6 3 10 8 10 11 0 2 -4 4 -10 4 -5 0 -10
-5 -10 -11z"/>
<path d="M7185 4750 c-3 -5 -1 -10 4 -10 6 0 11 5 11 10 0 6 -2 10 -4 10 -3 0
-8 -4 -11 -10z"/>
<path d="M7166 4688 c8 -29 10 -31 23 -23 8 4 8 12 1 26 -15 27 -33 24 -24 -3z"/>
<path d="M7560 4486 c0 -8 6 -17 13 -19 9 -4 8 -8 -3 -16 -10 -7 -11 -11 -3
-11 13 0 33 30 33 49 0 6 -9 11 -20 11 -11 0 -20 -6 -20 -14z"/>
<path d="M7500 4410 c0 -12 -8 -35 -17 -53 -24 -45 -26 -74 -7 -81 21 -8 104
31 104 49 0 7 4 15 10 17 6 2 5 19 -1 45 -10 37 -13 41 -30 30 -14 -9 -21 -9
-31 1 -18 18 -28 15 -28 -8z"/>
<path d="M7436 4384 c-16 -40 3 -47 28 -9 16 24 15 25 -3 25 -10 0 -22 -7 -25
-16z"/>
<path d="M6710 3960 c0 -5 5 -10 11 -10 5 0 7 5 4 10 -3 6 -8 10 -11 10 -2 0
-4 -4 -4 -10z"/>
<path d="M6555 3910 c-3 -5 -1 -10 4 -10 6 0 11 5 11 10 0 6 -2 10 -4 10 -3 0
-8 -4 -11 -10z"/>
<path d="M6166 3842 c-3 -5 1 -9 9 -9 8 0 12 4 9 9 -3 4 -7 8 -9 8 -2 0 -6 -4
-9 -8z"/>
<path d="M6605 3825 l-30 -14 33 -1 c22 0 32 5 32 15 0 8 -1 15 -2 14 -2 0
-16 -7 -33 -14z"/>
<path d="M6168 3780 c-5 -34 1 -44 18 -26 7 7 8 20 3 34 -11 30 -16 28 -21 -8z"/>
<path d="M6432 3760 c0 -14 2 -19 5 -12 2 6 2 18 0 25 -3 6 -5 1 -5 -13z"/>
<path d="M6402 3711 c-8 -5 -12 -17 -10 -26 3 -18 4 -18 21 -1 28 28 20 47
-11 27z"/>
<path d="M6115 3700 c-3 -5 -2 -10 4 -10 5 0 13 5 16 10 3 6 2 10 -4 10 -5 0
-13 -4 -16 -10z"/>
<path d="M3850 3669 c0 -5 5 -7 10 -4 6 3 10 8 10 11 0 2 -4 4 -10 4 -5 0 -10
-5 -10 -11z"/>
<path d="M5905 3660 c3 -5 8 -10 11 -10 2 0 4 5 4 10 0 6 -5 10 -11 10 -5 0
-7 -4 -4 -10z"/>
<path d="M5630 3566 c0 -2 7 -6 15 -10 8 -3 15 -1 15 4 0 6 -7 10 -15 10 -8 0
-15 -2 -15 -4z"/>
<path d="M5455 3330 c3 -5 8 -10 11 -10 2 0 4 5 4 10 0 6 -5 10 -11 10 -5 0
-7 -4 -4 -10z"/>
<path d="M5190 3310 c0 -5 5 -10 10 -10 6 0 10 5 10 10 0 6 -4 10 -10 10 -5 0
-10 -4 -10 -10z"/>
<path d="M4216 3251 c-4 -7 -5 -15 -2 -18 9 -9 19 4 14 18 -4 11 -6 11 -12 0z"/>
<path d="M4390 3032 c0 -5 7 -9 15 -9 8 0 15 4 15 9 0 4 -7 8 -15 8 -8 0 -15
-4 -15 -8z"/>
<path d="M8000 2750 c0 -5 5 -10 10 -10 6 0 10 5 10 10 0 6 -4 10 -10 10 -5 0
-10 -4 -10 -10z"/>
<path d="M4831 2704 c0 -11 3 -14 6 -6 3 7 2 16 -1 19 -3 4 -6 -2 -5 -13z"/>
<path d="M2833 2545 c-17 -18 -16 -25 1 -25 7 0 16 9 19 20 6 23 -3 25 -20 5z"/>
<path d="M8050 2538 c0 -19 2 -20 10 -8 13 19 13 30 0 30 -5 0 -10 -10 -10
-22z"/>
<path d="M2820 2500 c0 -5 5 -10 11 -10 5 0 7 5 4 10 -3 6 -8 10 -11 10 -2 0
-4 -4 -4 -10z"/>
<path d="M8046 2458 c-19 -22 -17 -88 2 -88 7 0 11 -4 8 -8 -7 -11 54 -56 62
-47 4 4 1 10 -6 12 -10 4 -10 8 -1 19 8 10 8 14 0 14 -6 0 -11 9 -11 19 0 14
-5 18 -19 14 -10 -3 -22 0 -26 7 -4 7 1 14 14 17 23 6 27 18 11 28 -8 5 -8 11
-1 19 8 9 7 13 -3 13 -8 0 -22 -9 -30 -19z"/>
<path d="M2840 2384 c0 -8 5 -12 10 -9 6 4 8 11 5 16 -9 14 -15 11 -15 -7z"/>
<path d="M8068 2305 c-3 -13 0 -26 7 -29 6 -2 12 -21 13 -43 1 -23 8 -44 19
-53 11 -9 17 -27 17 -45 -1 -16 3 -36 8 -42 6 -7 7 -13 4 -13 -10 0 15 -24 39
-38 11 -6 14 -12 8 -12 -7 0 -13 -7 -13 -16 0 -10 6 -14 15 -10 9 3 15 0 15
-9 0 -8 4 -15 9 -15 5 0 7 26 4 58 -2 31 -4 68 -4 82 1 18 -2 21 -8 11 -6 -10
-12 -3 -21 25 -7 22 -19 47 -27 56 -9 10 -13 28 -11 43 5 22 1 27 -23 32 -16
3 -29 11 -29 19 0 24 -18 24 -22 -1z m106 -219 c-3 -14 -10 -23 -15 -20 -13 8
-11 42 4 47 17 6 19 3 11 -27z"/>
<path d="M7416 1951 c-3 -5 1 -11 9 -15 9 -3 15 0 15 9 0 16 -16 20 -24 6z"/>
<path d="M8254 1924 c3 -9 6 -22 6 -30 0 -8 7 -14 15 -14 13 0 14 -4 5 -20 -9
-17 -8 -20 10 -20 11 0 20 -6 20 -14 0 -7 7 -19 16 -27 8 -7 13 -20 11 -30 -3
-12 3 -19 19 -23 13 -4 24 -11 24 -17 0 -17 50 -60 61 -53 8 4 9 -1 4 -15 -4
-12 -2 -21 4 -21 20 0 81 -74 81 -96 0 -13 5 -26 10 -29 6 -3 10 0 10 7 0 10
3 9 10 -2 6 -9 5 -17 -3 -22 -9 -6 -9 -8 1 -8 6 0 12 -9 12 -21 0 -11 4 -18 9
-15 9 6 21 -48 21 -94 0 -14 -9 -42 -20 -63 -11 -20 -20 -45 -20 -55 0 -10 -7
-27 -15 -38 -8 -10 -15 -27 -15 -36 0 -10 -8 -27 -17 -37 -33 -36 -43 -50 -43
-60 0 -6 -11 -18 -24 -27 -14 -8 -26 -27 -28 -40 -2 -14 -6 -23 -9 -22 -8 4
-79 -70 -79 -83 0 -5 -4 -7 -10 -4 -5 3 -10 2 -10 -4 0 -12 -55 -71 -67 -71
-4 -1 -24 -14 -43 -31 -19 -16 -27 -27 -17 -23 17 6 18 5 6 -14 -7 -12 -16
-17 -19 -12 -3 5 -12 5 -19 1 -7 -5 -10 -14 -7 -20 4 -6 -4 -15 -21 -22 -31
-12 -65 -44 -56 -53 4 -3 -2 -6 -12 -6 -10 0 -25 -8 -34 -18 -9 -9 -28 -23
-43 -31 -19 -10 -28 -23 -29 -40 0 -14 -3 -20 -6 -13 -7 17 -33 15 -33 -3 0
-8 -5 -15 -10 -15 -6 0 -24 -14 -40 -30 -16 -17 -36 -30 -44 -30 -7 0 -17 -11
-20 -25 -4 -17 -13 -25 -29 -25 -12 0 -37 -14 -56 -30 -18 -17 -42 -30 -52
-30 -10 0 -21 -9 -24 -20 -3 -11 -13 -20 -21 -20 -8 0 -14 -8 -15 -17 0 -10
-3 -13 -5 -7 -8 18 -42 4 -48 -19 -5 -17 -8 -19 -15 -8 -7 11 -14 9 -35 -12
-14 -14 -35 -28 -46 -32 -11 -3 -25 -15 -31 -26 -5 -11 -14 -17 -19 -14 -5 3
-11 1 -15 -5 -3 -5 -17 -10 -31 -10 -18 0 -24 -5 -24 -21 0 -16 -4 -19 -19
-14 -14 4 -21 0 -26 -14 -3 -11 -19 -22 -35 -26 -17 -4 -30 -11 -30 -16 0 -5
-18 -16 -39 -25 -22 -8 -42 -22 -45 -30 -5 -12 160 -14 1189 -14 l1195 0 0
580 c0 406 -3 580 -11 580 -14 0 -40 26 -32 34 3 3 -7 10 -23 16 -16 6 -36 20
-45 31 -9 13 -32 23 -60 26 -24 3 -48 12 -52 20 -5 7 -12 11 -18 8 -5 -3 -6 1
-2 11 5 14 1 16 -28 10 -28 -5 -37 -2 -49 14 -10 14 -17 16 -26 9 -16 -13 -63
18 -64 41 0 15 -42 40 -67 40 -7 0 -13 5 -13 10 0 6 -6 10 -13 10 -7 0 -30 9
-51 20 -22 10 -43 17 -48 14 -5 -3 -21 6 -35 20 -29 30 -48 33 -57 10 -3 -8
-10 -12 -16 -9 -6 4 -7 12 -4 18 4 7 4 9 -1 5 -9 -8 -65 19 -65 31 0 5 -8 8
-17 7 -10 -2 -24 6 -32 17 -10 15 -15 16 -22 6 -5 -9 -10 -5 -14 14 -4 15 -12
24 -17 21 -6 -4 -5 3 1 15 12 22 10 24 -29 22 -19 -1 -29 6 -40 31 -8 18 -26
38 -39 45 -13 6 -34 23 -46 38 -16 17 -24 22 -27 13 -3 -8 -12 1 -22 20 -12
23 -23 32 -41 32 -18 0 -25 5 -25 19 0 12 -9 21 -25 25 -14 4 -25 11 -25 16 0
6 3 9 8 8 4 -2 8 0 10 5 1 4 0 7 -3 7 -2 1 -20 7 -39 15 -45 19 -50 19 -42 -1z
m306 -234 c0 -5 -5 -10 -11 -10 -5 0 -7 5 -4 10 3 6 8 10 11 10 2 0 4 -4 4
-10z"/>
<path d="M7260 1800 c0 -5 5 -10 11 -10 5 0 7 5 4 10 -3 6 -8 10 -11 10 -2 0
-4 -4 -4 -10z"/>
<path d="M7170 1621 c0 -5 7 -11 14 -14 10 -4 13 -1 9 9 -6 15 -23 19 -23 5z"/>
</g>
</svg>
